<?xml version="1.0" encoding="utf-8"?>
<!-- Generator: Adobe Illustrator 19.0.0, SVG Export Plug-In . SVG Version: 6.00 Build 0)  -->
<svg version="1.1" id="Layer_1" xmlns="http://www.w3.org/2000/svg" xmlns:xlink="http://www.w3.org/1999/xlink" x="0px" y="0px"
	 width="763.7px" height="882.4px" viewBox="282 -341.4 763.7 882.4" style="enable-background:new 282 -341.4 763.7 882.4;"
	 xml:space="preserve">
<style type="text/css">
	.st0{fill:#F2F2F2;}
</style>
<path id="XMLID_15_" class="st0" d="M436.7,511.9c25.7-77.4,51.2-154.2,76.8-231.4c18,3.7,35,7.9,52.3,10.5
	c43.7,6.6,87.2,6.9,128.6-11.3c11.9-5.2,22.9-13.4,32.9-21.9c7.6-6.5,10.6-16.2,6.3-26.6c-4.2-10-11.8-16.3-22.3-15.9
	c-25.1,1-50.1,2.9-75.1,5.2c-39.8,3.6-79.5,10.9-119.2,10.9c-65.8-0.1-125.5-21.4-166.5-75.3c-61.4-80.5-72.4-174.2-24.3-265
	C367.1-186.1,432-237.8,510-273c85.9-38.8,176.4-58.3,271.2-53.1c26.4,1.5,52.5,6.8,80.7,10.7c-5.8,18.6-10.6,34.4-15.7,50
	c-18.5,56.5-58.7,176.9-61.1,178.5c-2.7,1.7-103.1-10.2-147.7,7.7c-10.2,4.1-20.1,10-28.5,17c-13.8,11.7-17.5,24.5-11.8,35
	c7.4,13.7,20.6,13.5,33.2,11.8c25-3.3,49.9-7.6,74.8-11.6c55.2-8.7,110.4-13.1,165.2,2.1c80.5,22.2,129.4,75.3,152.3,154.8
	c20.8,72.3,3.8,137.9-35.4,198.7c-50.1,77.8-124.1,125.3-209.1,156.8c-89,32.9-180.9,48.4-275.9,39.1c-18.2-1.8-36.2-5.9-54.3-9.2
	C444.4,514.7,441.1,513.3,436.7,511.9z"/>
<g id="XMLID_54_">
</g>
<g id="XMLID_55_">
</g>
<g id="XMLID_56_">
</g>
<g id="XMLID_57_">
</g>
<g id="XMLID_58_">
</g>
<g id="XMLID_59_">
</g>
<g id="XMLID_60_">
</g>
<g id="XMLID_61_">
</g>
<g id="XMLID_62_">
</g>
<g id="XMLID_63_">
</g>
<g id="XMLID_64_">
</g>
<g id="XMLID_65_">
</g>
<g id="XMLID_66_">
</g>
<g id="XMLID_67_">
</g>
<g id="XMLID_68_">
</g>
</svg>
